<svg width="4534" height="1630" viewBox="0 0 4534 1630" fill="none" xmlns="http://www.w3.org/2000/svg">
<rect y="225.179" width="4471.3" height="1404.82" rx="5" fill="white"/>
<path d="M597 624C597 664.667 587.667 702 569 736C550.333 769.333 521.667 796.333 483 817C444.333 837.667 396.333 848 339 848H233V1100H62V398H339C395 398 442.333 407.667 481 427C519.667 446.333 548.667 473 568 507C587.333 541 597 580 597 624ZM326 712C358.667 712 383 704.333 399 689C415 673.667 423 652 423 624C423 596 415 574.333 399 559C383 543.667 358.667 536 326 536H233V712H326ZM940.023 1108C885.357 1108 836.023 1096.33 792.023 1073C748.69 1049.67 714.357 1016.33 689.023 973C664.357 929.667 652.023 879 652.023 821C652.023 763.667 664.69 713.333 690.023 670C715.357 626 750.023 592.333 794.023 569C838.023 545.667 887.357 534 942.023 534C996.69 534 1046.02 545.667 1090.02 569C1134.02 592.333 1168.69 626 1194.02 670C1219.36 713.333 1232.02 763.667 1232.02 821C1232.02 878.333 1219.02 929 1193.02 973C1167.69 1016.33 1132.69 1049.67 1088.02 1073C1044.02 1096.33 994.69 1108 940.023 1108ZM940.023 960C972.69 960 1000.36 948 1023.02 924C1046.36 900 1058.02 865.667 1058.02 821C1058.02 776.333 1046.69 742 1024.02 718C1002.02 694 974.69 682 942.023 682C908.69 682 881.023 694 859.023 718C837.023 741.333 826.023 775.667 826.023 821C826.023 865.667 836.69 900 858.023 924C880.023 948 907.357 960 940.023 960ZM1493.74 635C1513.74 604.333 1538.74 580.333 1568.74 563C1598.74 545 1632.08 536 1668.74 536V717H1621.74C1579.08 717 1547.08 726.333 1525.74 745C1504.41 763 1493.74 795 1493.74 841V1100H1322.74V542H1493.74V635ZM2061.48 955V1100H1974.48C1912.48 1100 1864.14 1085 1829.48 1055C1794.81 1024.33 1777.48 974.667 1777.48 906V684H1709.48V542H1777.48V406H1948.48V542H2060.48V684H1948.48V908C1948.48 924.667 1952.48 936.667 1960.48 944C1968.48 951.333 1981.81 955 2000.48 955H2061.48Z" fill="black"/>
<path d="M2540.19 623.179V760.179H2254.19V908.179H2468.19V1041.18H2254.19V1325.18H2083.19V623.179H2540.19ZM2884.07 1333.18C2829.4 1333.18 2780.07 1321.51 2736.07 1298.18C2692.73 1274.85 2658.4 1241.51 2633.07 1198.18C2608.4 1154.85 2596.07 1104.18 2596.07 1046.18C2596.07 988.846 2608.73 938.512 2634.07 895.179C2659.4 851.179 2694.07 817.512 2738.07 794.179C2782.07 770.846 2831.4 759.179 2886.07 759.179C2940.73 759.179 2990.07 770.846 3034.07 794.179C3078.07 817.512 3112.73 851.179 3138.07 895.179C3163.4 938.512 3176.07 988.846 3176.07 1046.18C3176.07 1103.51 3163.07 1154.18 3137.07 1198.18C3111.73 1241.51 3076.73 1274.85 3032.07 1298.18C2988.07 1321.51 2938.73 1333.18 2884.07 1333.18ZM2884.07 1185.18C2916.73 1185.18 2944.4 1173.18 2967.07 1149.18C2990.4 1125.18 3002.07 1090.85 3002.07 1046.18C3002.07 1001.51 2990.73 967.179 2968.07 943.179C2946.07 919.179 2918.73 907.179 2886.07 907.179C2852.73 907.179 2825.07 919.179 2803.07 943.179C2781.07 966.512 2770.07 1000.85 2770.07 1046.18C2770.07 1090.85 2780.73 1125.18 2802.07 1149.18C2824.07 1173.18 2851.4 1185.18 2884.07 1185.18ZM3437.79 585.179V1325.18H3266.79V585.179H3437.79ZM3647.71 709.179C3617.71 709.179 3593.04 700.512 3573.71 683.179C3555.04 665.179 3545.71 643.179 3545.71 617.179C3545.71 590.512 3555.04 568.512 3573.71 551.179C3593.04 533.179 3617.71 524.179 3647.71 524.179C3677.04 524.179 3701.04 533.179 3719.71 551.179C3739.04 568.512 3748.71 590.512 3748.71 617.179C3748.71 643.179 3739.04 665.179 3719.71 683.179C3701.04 700.512 3677.04 709.179 3647.71 709.179ZM3732.71 767.179V1325.18H3561.71V767.179H3732.71ZM4110.63 1333.18C4055.96 1333.18 4006.63 1321.51 3962.63 1298.18C3919.3 1274.85 3884.96 1241.51 3859.63 1198.18C3834.96 1154.85 3822.63 1104.18 3822.63 1046.18C3822.63 988.846 3835.3 938.512 3860.63 895.179C3885.96 851.179 3920.63 817.512 3964.63 794.179C4008.63 770.846 4057.96 759.179 4112.63 759.179C4167.3 759.179 4216.63 770.846 4260.63 794.179C4304.63 817.512 4339.3 851.179 4364.63 895.179C4389.96 938.512 4402.63 988.846 4402.63 1046.18C4402.63 1103.51 4389.63 1154.18 4363.63 1198.18C4338.3 1241.51 4303.3 1274.85 4258.63 1298.18C4214.63 1321.51 4165.3 1333.18 4110.63 1333.18ZM4110.63 1185.18C4143.3 1185.18 4170.96 1173.18 4193.63 1149.18C4216.96 1125.18 4228.63 1090.85 4228.63 1046.18C4228.63 1001.51 4217.3 967.179 4194.63 943.179C4172.63 919.179 4145.3 907.179 4112.63 907.179C4079.3 907.179 4051.63 919.179 4029.63 943.179C4007.63 966.512 3996.63 1000.85 3996.63 1046.18C3996.63 1090.85 4007.3 1125.18 4028.63 1149.18C4050.63 1173.18 4077.96 1185.18 4110.63 1185.18Z" fill="#FF2424"/>
</svg>
