<svg width="2337" height="1034" viewBox="0 0 2337 1034" fill="none" xmlns="http://www.w3.org/2000/svg">
<rect width="2337" height="1034" rx="5" fill="white"/>
<path d="M341.5 388C341.5 408.333 336.833 427 327.5 444C318.167 460.667 303.833 474.167 284.5 484.5C265.167 494.833 241.167 500 212.5 500H159.5V626H74V275H212.5C240.5 275 264.167 279.833 283.5 289.5C302.833 299.167 317.333 312.5 327 329.5C336.667 346.5 341.5 366 341.5 388ZM206 432C222.333 432 234.5 428.167 242.5 420.5C250.5 412.833 254.5 402 254.5 388C254.5 374 250.5 363.167 242.5 355.5C234.5 347.833 222.333 344 206 344H159.5V432H206ZM513.012 630C485.678 630 461.012 624.167 439.012 612.5C417.345 600.833 400.178 584.167 387.512 562.5C375.178 540.833 369.012 515.5 369.012 486.5C369.012 457.833 375.345 432.667 388.012 411C400.678 389 418.012 372.167 440.012 360.5C462.012 348.833 486.678 343 514.012 343C541.345 343 566.012 348.833 588.012 360.5C610.012 372.167 627.345 389 640.012 411C652.678 432.667 659.012 457.833 659.012 486.5C659.012 515.167 652.512 540.5 639.512 562.5C626.845 584.167 609.345 600.833 587.012 612.5C565.012 624.167 540.345 630 513.012 630ZM513.012 556C529.345 556 543.178 550 554.512 538C566.178 526 572.012 508.833 572.012 486.5C572.012 464.167 566.345 447 555.012 435C544.012 423 530.345 417 514.012 417C497.345 417 483.512 423 472.512 435C461.512 446.667 456.012 463.833 456.012 486.5C456.012 508.833 461.345 526 472.012 538C483.012 550 496.678 556 513.012 556ZM789.871 393.5C799.871 378.167 812.371 366.167 827.371 357.5C842.371 348.5 859.038 344 877.371 344V434.5H853.871C832.538 434.5 816.538 439.167 805.871 448.5C795.204 457.5 789.871 473.5 789.871 496.5V626H704.371V347H789.871V393.5ZM1073.74 553.5V626H1030.24C999.238 626 975.072 618.5 957.738 603.5C940.405 588.167 931.738 563.333 931.738 529V418H897.738V347H931.738V279H1017.24V347H1073.24V418H1017.24V530C1017.24 538.333 1019.24 544.333 1023.24 548C1027.24 551.667 1033.9 553.5 1043.24 553.5H1073.74Z" fill="black"/>
<path d="M1316.5 417V485.5H1173.5V559.5H1280.5V626H1173.5V768H1088V417H1316.5ZM1488.44 772C1461.1 772 1436.44 766.167 1414.44 754.5C1392.77 742.833 1375.6 726.167 1362.94 704.5C1350.6 682.833 1344.44 657.5 1344.44 628.5C1344.44 599.833 1350.77 574.667 1363.44 553C1376.1 531 1393.44 514.167 1415.44 502.5C1437.44 490.833 1462.1 485 1489.44 485C1516.77 485 1541.44 490.833 1563.44 502.5C1585.44 514.167 1602.77 531 1615.44 553C1628.1 574.667 1634.44 599.833 1634.44 628.5C1634.44 657.167 1627.94 682.5 1614.94 704.5C1602.27 726.167 1584.77 742.833 1562.44 754.5C1540.44 766.167 1515.77 772 1488.44 772ZM1488.44 698C1504.77 698 1518.6 692 1529.94 680C1541.6 668 1547.44 650.833 1547.44 628.5C1547.44 606.167 1541.77 589 1530.44 577C1519.44 565 1505.77 559 1489.44 559C1472.77 559 1458.94 565 1447.94 577C1436.94 588.667 1431.44 605.833 1431.44 628.5C1431.44 650.833 1436.77 668 1447.44 680C1458.44 692 1472.1 698 1488.44 698ZM1765.3 398V768H1679.8V398H1765.3ZM1870.26 460C1855.26 460 1842.92 455.667 1833.26 447C1823.92 438 1819.26 427 1819.26 414C1819.26 400.667 1823.92 389.667 1833.26 381C1842.92 372 1855.26 367.5 1870.26 367.5C1884.92 367.5 1896.92 372 1906.26 381C1915.92 389.667 1920.76 400.667 1920.76 414C1920.76 427 1915.92 438 1906.26 447C1896.92 455.667 1884.92 460 1870.26 460ZM1912.76 489V768H1827.26V489H1912.76ZM2101.72 772C2074.39 772 2049.72 766.167 2027.72 754.5C2006.05 742.833 1988.89 726.167 1976.22 704.5C1963.89 682.833 1957.72 657.5 1957.72 628.5C1957.72 599.833 1964.05 574.667 1976.72 553C1989.39 531 2006.72 514.167 2028.72 502.5C2050.72 490.833 2075.39 485 2102.72 485C2130.05 485 2154.72 490.833 2176.72 502.5C2198.72 514.167 2216.05 531 2228.72 553C2241.39 574.667 2247.72 599.833 2247.72 628.5C2247.72 657.167 2241.22 682.5 2228.22 704.5C2215.55 726.167 2198.05 742.833 2175.72 754.5C2153.72 766.167 2129.05 772 2101.72 772ZM2101.72 698C2118.05 698 2131.89 692 2143.22 680C2154.89 668 2160.72 650.833 2160.72 628.5C2160.72 606.167 2155.05 589 2143.72 577C2132.72 565 2119.05 559 2102.72 559C2086.05 559 2072.22 565 2061.22 577C2050.22 588.667 2044.72 605.833 2044.72 628.5C2044.72 650.833 2050.05 668 2060.72 680C2071.72 692 2085.39 698 2101.72 698Z" fill="#FF2424"/>
</svg>
